<svg width="77" height="77" viewBox="0 0 77 77" fill="none" xmlns="http://www.w3.org/2000/svg">
<rect x="0.46875" width="76.4818" height="76.6123" rx="12" fill="#172239"/>
<path fill-rule="evenodd" clip-rule="evenodd" d="M17.0944 36.6654L16.6726 40.0404C16.3601 43.0092 16.4069 45.9467 16.8132 48.8529C17.2194 51.7279 18.0632 54.3373 19.3444 56.681C20.6257 59.0248 22.3913 60.9154 24.6413 62.3529C26.9226 63.7904 29.7976 64.5404 33.2663 64.6029C36.8288 64.6967 39.9694 64.0873 42.6882 62.7748C45.4382 61.431 47.7663 59.5873 49.6726 57.2435C51.6101 54.8998 53.1413 52.2435 54.2663 49.2748C55.3913 46.306 56.1569 43.2123 56.5632 39.9935L56.9382 36.6185C56.9513 36.4944 56.9637 36.3703 56.9755 36.2462L41.4302 49.2331C40.7845 50.5726 39.9069 51.6802 38.7976 52.556C37.6413 53.4623 36.1882 53.8529 34.4382 53.7279C32.8757 53.6654 31.7194 53.1342 30.9694 52.1342C30.2194 51.1029 29.7351 49.8373 29.5163 48.3373C29.2976 46.8373 29.2351 45.3529 29.3288 43.8842C29.4226 42.3842 29.5163 41.1342 29.6101 40.1342L29.9851 36.6185C30.1413 35.3685 30.3913 33.931 30.7351 32.306C31.0788 30.681 31.5944 29.1498 32.2819 27.7123C32.9694 26.2435 33.8601 25.0404 34.9538 24.1029C36.0788 23.1654 37.5007 22.7435 39.2194 22.8373C40.7507 22.931 41.8913 23.4935 42.6413 24.5248C43.4226 25.556 43.9226 26.8217 44.1413 28.3217C44.2177 28.8346 44.275 29.3513 44.3133 29.8718L54.8625 21.0588C54.6897 20.6921 54.5066 20.3318 54.3132 19.9779C53.0319 17.6029 51.2507 15.6967 48.9694 14.2592C46.7194 12.8217 43.8444 12.0717 40.3444 12.0092C36.7819 11.9154 33.6257 12.5404 30.8757 13.8842C28.1569 15.1967 25.8288 17.0404 23.8913 19.4154C21.9851 21.7904 20.4538 24.4623 19.2976 27.431C18.1726 30.3998 17.4382 33.4779 17.0944 36.6654Z" fill="#F4F7ED"/>
<path d="M62.6179 26.8801L63.6888 25.9879L62.8775 24.8545L61.0723 22.3328L60.1331 21.0208L58.893 22.053L43.168 35.1421L40.4868 31.3685L39.549 30.0485L38.3044 31.0844L35.9117 33.076L34.8438 33.965L35.6486 35.0977L41.0706 42.7291L42.0089 44.0497L43.2535 43.0128L62.6179 26.8801Z" fill="#86EE60" stroke="#86EE60" stroke-width="3"/>
</svg>
