<svg width="376" height="70" viewBox="0 0 376 70" fill="none" xmlns="http://www.w3.org/2000/svg">
<path fill-rule="evenodd" clip-rule="evenodd" d="M23.2473 12.0029L20.1968 29.6279H40.9688L38.9531 40.9717H18.2335L13.4062 68.8623H0L11.7656 0.612305H21.7969H25.2188H48.5156L46.5 12.0029H23.2473ZM42.495 45.2373L42.9169 41.8623C43.2606 38.6748 43.995 35.5967 45.12 32.6279C46.2762 29.6592 47.8075 26.9873 49.7137 24.6123C51.6512 22.2373 53.9794 20.3936 56.6981 19.0811C59.4481 17.7373 62.6044 17.1123 66.1669 17.2061C69.6669 17.2686 72.5419 18.0186 74.7919 19.4561C77.0731 20.8936 78.8544 22.7998 80.1356 25.1748C81.4169 27.5186 82.245 30.1436 82.62 33.0498C83.0262 35.9248 83.0731 38.8467 82.7606 41.8154L82.3856 45.1904C81.9794 48.4092 81.2137 51.5029 80.0887 54.4717C78.9637 57.4404 77.4325 60.0967 75.495 62.4404C73.5887 64.7842 71.2606 66.6279 68.5106 67.9717C65.7919 69.2842 62.6512 69.8936 59.0887 69.7998C55.62 69.7373 52.745 68.9873 50.4637 67.5498C48.2137 66.1123 46.4481 64.2217 45.1669 61.8779C43.8856 59.5342 43.0419 56.9248 42.6356 54.0498C42.2294 51.1436 42.1825 48.2061 42.495 45.2373ZM55.8075 41.8154L55.4325 45.3311C55.3387 46.3311 55.245 47.5811 55.1512 49.0811C55.0575 50.5498 55.12 52.0342 55.3387 53.5342C55.5575 55.0342 56.0419 56.2998 56.7919 57.3311C57.5419 58.3311 58.6981 58.8623 60.2606 58.9248C62.0106 59.0498 63.4637 58.6592 64.62 57.7529C65.8075 56.8154 66.7294 55.6123 67.3856 54.1436C68.0419 52.6748 68.5419 51.1436 68.8856 49.5498C69.2294 47.9248 69.4794 46.4561 69.6356 45.1436L69.9637 41.7217C70.0262 40.7529 70.0887 39.5186 70.1512 38.0186C70.245 36.4873 70.1825 34.9873 69.9637 33.5186C69.745 32.0186 69.245 30.7529 68.4637 29.7217C67.7137 28.6904 66.5731 28.1279 65.0419 28.0342C63.3231 27.9404 61.9012 28.3623 60.7762 29.2998C59.6825 30.2373 58.7919 31.4404 58.1044 32.9092C57.4169 34.3467 56.9012 35.8779 56.5575 37.5029C56.2137 39.1279 55.9637 40.5654 55.8075 41.8154ZM106.506 57.9404C105.599 58.6592 104.396 59.0029 102.896 58.9717C101.209 58.9404 100.021 58.4404 99.3337 57.4717C98.6775 56.4717 98.3025 55.2373 98.2087 53.7686C98.115 52.2686 98.1619 50.7686 98.3494 49.2686C98.5369 47.7373 98.6775 46.4404 98.7712 45.3779L99.0994 41.6279C99.2869 40.3154 99.49 38.8623 99.7087 37.2686C99.9587 35.6748 100.365 34.1592 100.927 32.7217C101.49 31.2842 102.318 30.1279 103.412 29.2529C104.506 28.3779 105.974 27.9717 107.818 28.0342C109.381 28.0967 110.49 28.6279 111.146 29.6279C111.834 30.6279 112.224 31.8154 112.318 33.1904C112.412 34.5342 112.443 35.8154 112.412 37.0342L124.459 37.0811C124.615 33.5811 124.209 30.3467 123.24 27.3779C122.302 24.4092 120.693 22.0029 118.412 20.1592C116.131 18.2842 113.052 17.2998 109.177 17.2061C105.521 17.1123 102.349 17.7217 99.6619 19.0342C96.9744 20.3154 94.7087 22.1123 92.865 24.4248C91.0525 26.7373 89.615 29.3936 88.5525 32.3936C87.5212 35.3623 86.7869 38.4561 86.3494 41.6748L85.9275 45.3779C85.5837 48.4404 85.5681 51.4092 85.8806 54.2842C86.2244 57.1279 86.99 59.7217 88.1775 62.0654C89.3962 64.3779 91.1306 66.2373 93.3806 67.6436C95.6619 69.0186 98.5837 69.7529 102.146 69.8467C105.771 69.9092 108.99 69.1279 111.802 67.5029C114.646 65.8779 116.912 63.6592 118.599 60.8467C120.287 58.0029 121.271 54.8467 121.552 51.3779L109.552 51.4248C109.365 52.6436 109.037 53.8467 108.568 55.0342C108.099 56.2217 107.412 57.1904 106.506 57.9404ZM145.626 67.7373C146.543 67.0988 147.382 66.3754 148.141 65.567L147.782 68.8623H159.782L168.594 18.1436H155.751L149.307 55.2875C148.915 55.907 148.47 56.4788 147.969 57.0029C146.657 58.3467 144.813 58.9404 142.438 58.7842C141.407 58.7842 140.641 58.5186 140.141 57.9873C139.673 57.4561 139.344 56.7842 139.157 55.9717C139.001 55.1592 138.923 54.3311 138.923 53.4873C138.954 52.6123 139.001 51.8154 139.063 51.0967L144.501 18.1436H131.657L126.173 50.9092C125.954 53.0967 125.938 55.2998 126.126 57.5186C126.344 59.7061 126.86 61.7217 127.673 63.5654C128.485 65.4092 129.688 66.9092 131.282 68.0654C132.907 69.1904 135.016 69.7842 137.61 69.8467C140.798 69.9404 143.469 69.2373 145.626 67.7373ZM189.621 51.8467C190.433 52.6592 190.746 53.6904 190.558 54.9404C190.371 56.0654 189.98 57.0186 189.386 57.7998C188.792 58.5498 188.042 59.1123 187.136 59.4873C186.23 59.8623 185.23 60.0498 184.136 60.0498C182.699 60.0498 181.574 59.7529 180.761 59.1592C179.98 58.5654 179.464 57.7373 179.214 56.6748C178.964 55.6123 178.839 54.4561 178.839 53.2061L166.699 53.1592C166.667 56.4092 167.355 59.2686 168.761 61.7373C170.167 64.2061 172.121 66.1436 174.621 67.5498C177.152 68.9561 180.058 69.7061 183.339 69.7998C185.714 69.8623 188.027 69.5654 190.277 68.9092C192.527 68.2842 194.574 67.3311 196.417 66.0498C198.261 64.7373 199.761 63.1123 200.917 61.1748C202.074 59.2061 202.714 56.9248 202.839 54.3311C203.027 51.4561 202.589 49.0654 201.527 47.1592C200.464 45.2217 198.964 43.5811 197.027 42.2373C195.121 40.8936 192.996 39.6748 190.652 38.5811C190.058 38.3311 189.339 38.0186 188.496 37.6436C187.652 37.2373 186.855 36.7842 186.105 36.2842C185.355 35.7842 184.761 35.2061 184.324 34.5498C183.886 33.8623 183.746 33.0654 183.902 32.1592C184.121 31.2217 184.496 30.3623 185.027 29.5811C185.558 28.7686 186.214 28.1279 186.996 27.6592C187.808 27.1904 188.714 26.9404 189.714 26.9092C190.996 26.8779 191.933 27.1748 192.527 27.7998C193.152 28.4248 193.527 29.2217 193.652 30.1904C193.808 31.1279 193.871 32.0967 193.839 33.0967H206.636C206.667 29.8467 205.996 27.0342 204.621 24.6592C203.277 22.2842 201.371 20.4561 198.902 19.1748C196.433 17.8936 193.605 17.2217 190.417 17.1592C188.074 17.1279 185.808 17.4717 183.621 18.1904C181.464 18.9092 179.527 19.9404 177.808 21.2842C176.089 22.6279 174.699 24.2686 173.636 26.2061C172.574 28.1436 171.98 30.3623 171.855 32.8623C171.73 34.8623 171.964 36.6436 172.558 38.2061C173.152 39.7686 173.996 41.1436 175.089 42.3311C176.214 43.5186 177.511 44.5811 178.98 45.5186C180.449 46.4561 182.011 47.3467 183.667 48.1904C184.542 48.5967 185.542 49.0967 186.667 49.6904C187.824 50.2842 188.808 51.0029 189.621 51.8467ZM229.441 12.0029L226.391 29.6279H247.163L245.147 40.9717H224.427L219.6 68.8623H206.194L217.959 0.612305H227.991H231.413H254.709L252.694 12.0029H229.441ZM260.408 68.8623L272.97 0.612305H260.079L247.611 68.8623H260.408ZM270.277 45.2373L270.699 41.8623C271.043 38.6748 271.777 35.5967 272.902 32.6279C274.059 29.6592 275.59 26.9873 277.496 24.6123C279.434 22.2373 281.762 20.3936 284.481 19.0811C287.231 17.7373 290.387 17.1123 293.949 17.2061C297.449 17.2686 300.324 18.0186 302.574 19.4561C304.856 20.8936 306.637 22.7998 307.918 25.1748C308.112 25.5287 308.295 25.889 308.467 26.2556L297.918 35.0687C297.88 34.5482 297.823 34.0315 297.746 33.5186C297.527 32.0186 297.027 30.7529 296.246 29.7217C295.496 28.6904 294.356 28.1279 292.824 28.0342C291.106 27.9404 289.684 28.3623 288.559 29.2998C287.465 30.2373 286.574 31.4404 285.887 32.9092C285.199 34.3467 284.684 35.8779 284.34 37.5029C283.996 39.1279 283.746 40.5654 283.59 41.8154L283.215 45.3311C283.121 46.3311 283.027 47.5811 282.934 49.0811C282.84 50.5498 282.902 52.0342 283.121 53.5342C283.34 55.0342 283.824 56.2998 284.574 57.3311C285.324 58.3311 286.481 58.8623 288.043 58.9248C289.793 59.0498 291.246 58.6592 292.402 57.7529C293.512 56.8771 294.389 55.7695 295.035 54.43L310.58 41.4431C310.569 41.5671 310.556 41.6912 310.543 41.8154L310.168 45.1904C309.762 48.4092 308.996 51.5029 307.871 54.4717C306.746 57.4404 305.215 60.0967 303.277 62.4404C301.371 64.7842 299.043 66.6279 296.293 67.9717C293.574 69.2842 290.434 69.8936 286.871 69.7998C283.402 69.7373 280.527 68.9873 278.246 67.5498C275.996 66.1123 274.231 64.2217 272.949 61.8779C271.668 59.5342 270.824 56.9248 270.418 54.0498C270.012 51.1436 269.965 48.2061 270.277 45.2373ZM325.007 68.8623H321.304L319.757 18.1436H331.851L331.398 46.3271L342.772 18.1436H344.319H351.069H352.007L353.639 46.704L363.022 18.1436H375.632L356.554 68.8623H352.476H348.538H345.913L343.979 39.6972L331.944 68.8623H328.944H325.007Z" fill="#2B3752"/>
<path d="M316.223 32.077L317.294 31.1848L316.482 30.0514L314.677 27.5297L313.738 26.2177L312.498 27.2499L296.773 40.339L294.092 36.5654L293.154 35.2454L291.909 36.2813L289.517 38.2729L288.449 39.1619L289.254 40.2946L294.676 47.926L295.614 49.2466L296.859 48.2097L316.223 32.077Z" fill="#65BE61" stroke="#65BE61" stroke-width="3"/>
</svg>
